<svg id="eR1wvEa9rGi1" viewBox="0 0 2000 2000" shape-rendering="geometricPrecision" text-rendering="geometricPrecision">
    <defs>
        <filter id="glow" height="300%" width="300%" x="-75%" y="-75%">
            <feMorphology operator="dilate" radius="30" in="SourceColor" result="thicken"/>
            <feGaussianBlur in="thicken" stdDeviation="10" result="blurred"/>
            <feMerge>
                <feMergeNode in="blurred"/>
            </feMerge>
        </filter>
    </defs>

    <rect width="250" height="250" transform="translate(0 0)" fill="#a9a5a2"/>
    <rect width="250" height="250" transform="translate(1000 0)" fill="#a9a5a2"/>
    <rect width="250" height="250" transform="translate(500 0)" fill="#a9a5a2"/>
    <rect width="250" height="250" transform="translate(1500 0)" fill="#a9a5a2"/>
    <rect width="250" height="250" transform="translate(250 250)" fill="#a9a5a2"/>
    <rect width="250" height="250" transform="translate(1250 250)" fill="#a9a5a2"/>
    <rect width="250" height="250" transform="translate(750 250)" fill="#a9a5a2"/>
    <rect width="250" height="250" transform="translate(1750 250)" fill="#a9a5a2"/>
    <rect width="250" height="250" transform="translate(0 500)" fill="#a9a5a2"/>
    <rect width="250" height="250" transform="translate(1000 500)" fill="#a9a5a2"/>
    <rect width="250" height="250" transform="translate(500 500)" fill="#a9a5a2"/>
    <rect width="250" height="250" transform="translate(1500 500)" fill="#a9a5a2"/>
    <rect width="250" height="250" transform="translate(250 750)" fill="#a9a5a2"/>
    <rect width="250" height="250" transform="translate(1250 750)" fill="#a9a5a2"/>
    <rect width="250" height="250" transform="translate(750 750)" fill="#a9a5a2"/>
    <rect width="250" height="250" transform="translate(1750 750)" fill="#a9a5a2"/>
    <rect width="250" height="250" transform="translate(0 1000)" fill="#a9a5a2"/>
    <rect width="250" height="250" transform="translate(1000 1000)" fill="#a9a5a2"/>
    <rect width="250" height="250" transform="translate(500 1000)" fill="#a9a5a2"/>
    <rect width="250" height="250" transform="translate(1500 1000)" fill="#a9a5a2"/>
    <rect width="250" height="250" transform="translate(250 1250)" fill="#a9a5a2"/>
    <rect width="250" height="250" transform="translate(1250 1250)" fill="#a9a5a2"/>
    <rect width="250" height="250" transform="translate(750 1250)" fill="#a9a5a2"/>
    <rect width="250" height="250" transform="translate(1750 1250)" fill="#a9a5a2"/>
    <rect width="250" height="250" transform="translate(0 1500)" fill="#a9a5a2"/>
    <rect width="250" height="250" transform="translate(1000 1500)" fill="#a9a5a2"/>
    <rect width="250" height="250" transform="translate(500 1500)" fill="#a9a5a2"/>
    <rect width="250" height="250" transform="translate(1500 1500)" fill="#a9a5a2"/>
    <rect width="250" height="250" transform="translate(250 1750)" fill="#a9a5a2"/>
    <rect width="250" height="250" transform="translate(1250 1750)" fill="#a9a5a2"/>
    <rect width="250" height="250" transform="translate(750 1750)" fill="#a9a5a2"/>
    <rect width="250" height="250" transform="translate(1750 1750)" fill="#a9a5a2"/>
    <rect width="250" height="250" transform="translate(250 0)" fill="#9d9898"/>
    <rect width="250" height="250" transform="translate(1250 0)" fill="#9d9898"/>
    <rect width="250" height="250" transform="translate(750 0)" fill="#9d9898"/>
    <rect width="250" height="250" transform="translate(1750 0)" fill="#9d9898"/>
    <rect width="250" height="250" transform="translate(0 250)" fill="#9d9898"/>
    <rect width="250" height="250" transform="translate(1000 250)" fill="#9d9898"/>
    <rect width="250" height="250" transform="translate(500 250)" fill="#9d9898"/>
    <rect width="250" height="250" transform="translate(1500 250)" fill="#9d9898"/>
    <rect width="250" height="250" transform="translate(250 1000)" fill="#9d9898"/>
    <rect width="250" height="250" transform="translate(1250 1000)" fill="#9d9898"/>
    <rect width="250" height="250" transform="translate(750 1000)" fill="#9d9898"/>
    <rect width="250" height="250" transform="translate(1750 1000)" fill="#9d9898"/>
    <rect width="250" height="250" transform="translate(250 500)" fill="#9d9898"/>
    <rect width="250" height="250" transform="translate(1250 500)" fill="#9d9898"/>
    <rect width="250" height="250" transform="translate(750 500)" fill="#9d9898"/>
    <rect width="250" height="250" transform="translate(1750 500)" fill="#9d9898"/>
    <rect width="250" height="250" transform="translate(0 750)" fill="#9d9898"/>
    <rect width="250" height="250" transform="translate(1000 750)" fill="#9d9898"/>
    <rect width="250" height="250" transform="translate(500 750)" fill="#9d9898"/>
    <rect width="250" height="250" transform="translate(1500 750)" fill="#9d9898"/>
    <rect width="250" height="250" transform="translate(0 1250)" fill="#9d9898"/>
    <rect width="250" height="250" transform="translate(1000 1250)" fill="#9d9898"/>
    <rect width="250" height="250" transform="translate(500 1250)" fill="#9d9898"/>
    <rect width="250" height="250" transform="translate(1500 1250)" fill="#9d9898"/>
    <rect width="250" height="250" transform="translate(250 1500)" fill="#9d9898"/>
    <rect width="250" height="250" transform="translate(1250 1500)" fill="#9d9898"/>
    <rect width="250" height="250" transform="translate(750 1500)" fill="#9d9898"/>
    <rect width="250" height="250" transform="translate(1750 1500)" fill="#9d9898"/>
    <rect width="250" height="250" transform="translate(0 1750)" fill="#9d9898"/>
    <rect width="250" height="250" transform="translate(1000 1750)" fill="#9d9898"/>
    <rect width="250" height="250" transform="translate(500 1750)" fill="#9d9898"/>
    <rect width="250" height="250" transform="translate(1500 1750)" fill="#9d9898"/>

    <rect id="56" width="250" height="250" rx="65" ry="65" transform="matrix(0.75 0 0 0.75  35 35)"  fill="#00000000" filter="url(#glow)"/>
    <rect id="57" width="250" height="250" rx="65" ry="65" transform="matrix(0.75 0 0 0.75  285 35)"  fill="#00000000" filter="url(#glow)"/>
    <rect id="58" width="250" height="250" rx="65" ry="65" transform="matrix(0.75 0 0 0.75  535 35)"  fill="#00000000" filter="url(#glow)"/>
    <rect id="59" width="250" height="250" rx="65" ry="65" transform="matrix(0.75 0 0 0.75  785 35)"  fill="#00000000" filter="url(#glow)"/>
    <rect id="60" width="250" height="250" rx="65" ry="65" transform="matrix(0.75 0 0 0.75  1035 35)"  fill="#00000000" filter="url(#glow)"/>
    <rect id="61" width="250" height="250" rx="65" ry="65" transform="matrix(0.75 0 0 0.75  1285 35)"  fill="#00000000" filter="url(#glow)"/>
    <rect id="62" width="250" height="250" rx="65" ry="65" transform="matrix(0.75 0 0 0.75  1535 35)"  fill="#00000000" filter="url(#glow)"/>
    <rect id="63" width="250" height="250" rx="65" ry="65" transform="matrix(0.75 0 0 0.75  1785 35)"  fill="#00000000" filter="url(#glow)"/>
    
    <rect id="55" width="250" height="250" rx="65" ry="65" transform="matrix(0.75 0 0 0.75  35 285)"  fill="#00000000" filter="url(#glow)"/>
    <rect id="54" width="250" height="250" rx="65" ry="65" transform="matrix(0.75 0 0 0.75  285 285)"  fill="#00000000" filter="url(#glow)"/>
    <rect id="53" width="250" height="250" rx="65" ry="65" transform="matrix(0.75 0 0 0.75  535 285)"  fill="#00000000" filter="url(#glow)"/>
    <rect id="52" width="250" height="250" rx="65" ry="65" transform="matrix(0.75 0 0 0.75  785 285)"  fill="#00000000" filter="url(#glow)"/>
    <rect id="51" width="250" height="250" rx="65" ry="65" transform="matrix(0.75 0 0 0.75  1035 285)"  fill="#00000000" filter="url(#glow)"/>
    <rect id="50" width="250" height="250" rx="65" ry="65" transform="matrix(0.75 0 0 0.75  1285 285)"  fill="#00000000" filter="url(#glow)"/>
    <rect id="49" width="250" height="250" rx="65" ry="65" transform="matrix(0.75 0 0 0.75  1535 285)"  fill="#00000000" filter="url(#glow)"/>
    <rect id="48" width="250" height="250" rx="65" ry="65" transform="matrix(0.75 0 0 0.75  1785 285)"  fill="#00000000" filter="url(#glow)"/>
    
    <rect id="40" width="250" height="250" rx="65" ry="65" transform="matrix(0.75 0 0 0.75  35 535)"  fill="#00000000" filter="url(#glow)"/>
    <rect id="41" width="250" height="250" rx="65" ry="65" transform="matrix(0.75 0 0 0.75  285 535)"  fill="#00000000" filter="url(#glow)"/>
    <rect id="42" width="250" height="250" rx="65" ry="65" transform="matrix(0.75 0 0 0.75  535 535)"  fill="#00000000" filter="url(#glow)"/>
    <rect id="43" width="250" height="250" rx="65" ry="65" transform="matrix(0.75 0 0 0.75  785 535)"  fill="#00000000" filter="url(#glow)"/>
    <rect id="44" width="250" height="250" rx="65" ry="65" transform="matrix(0.75 0 0 0.75  1035 535)"  fill="#00000000" filter="url(#glow)"/>
    <rect id="45" width="250" height="250" rx="65" ry="65" transform="matrix(0.75 0 0 0.75  1285 535)"  fill="#00000000" filter="url(#glow)"/>
    <rect id="46" width="250" height="250" rx="65" ry="65" transform="matrix(0.75 0 0 0.75  1535 535)"  fill="#00000000" filter="url(#glow)"/>
    <rect id="47" width="250" height="250" rx="65" ry="65" transform="matrix(0.75 0 0 0.75  1785 535)"  fill="#00000000" filter="url(#glow)"/>
    
    <rect id="39" width="250" height="250" rx="65" ry="65" transform="matrix(0.75 0 0 0.75  35 785)"  fill="#00000000" filter="url(#glow)"/>
    <rect id="38" width="250" height="250" rx="65" ry="65" transform="matrix(0.75 0 0 0.75  285 785)"  fill="#00000000" filter="url(#glow)"/>
    <rect id="37" width="250" height="250" rx="65" ry="65" transform="matrix(0.75 0 0 0.75  535 785)"  fill="#00000000" filter="url(#glow)"/>
    <rect id="36" width="250" height="250" rx="65" ry="65" transform="matrix(0.75 0 0 0.75  785 785)"  fill="#00000000" filter="url(#glow)"/>
    <rect id="35" width="250" height="250" rx="65" ry="65" transform="matrix(0.75 0 0 0.75  1035 785)"  fill="#00000000" filter="url(#glow)"/>
    <rect id="34" width="250" height="250" rx="65" ry="65" transform="matrix(0.75 0 0 0.75  1285 785)"  fill="#00000000" filter="url(#glow)"/>
    <rect id="33" width="250" height="250" rx="65" ry="65" transform="matrix(0.75 0 0 0.75  1535 785)"  fill="#00000000" filter="url(#glow)"/>
    <rect id="32" width="250" height="250" rx="65" ry="65" transform="matrix(0.75 0 0 0.75  1785 785)"  fill="#00000000" filter="url(#glow)"/>
    
    <rect id="24" width="250" height="250" rx="65" ry="65" transform="matrix(0.75 0 0 0.75  35 1035)"  fill="#00000000" filter="url(#glow)"/>
    <rect id="25" width="250" height="250" rx="65" ry="65" transform="matrix(0.75 0 0 0.75  285 1035)"  fill="#00000000" filter="url(#glow)"/>
    <rect id="26" width="250" height="250" rx="65" ry="65" transform="matrix(0.75 0 0 0.75  535 1035)"  fill="#00000000" filter="url(#glow)"/>
    <rect id="27" width="250" height="250" rx="65" ry="65" transform="matrix(0.75 0 0 0.75  785 1035)"  fill="#00000000" filter="url(#glow)"/>
    <rect id="28" width="250" height="250" rx="65" ry="65" transform="matrix(0.75 0 0 0.75  1035 1035)"  fill="#00000000" filter="url(#glow)"/>
    <rect id="29" width="250" height="250" rx="65" ry="65" transform="matrix(0.75 0 0 0.75  1285 1035)"  fill="#00000000" filter="url(#glow)"/>
    <rect id="30" width="250" height="250" rx="65" ry="65" transform="matrix(0.75 0 0 0.75  1535 1035)"  fill="#00000000" filter="url(#glow)"/>
    <rect id="31" width="250" height="250" rx="65" ry="65" transform="matrix(0.75 0 0 0.75  1785 1035)"  fill="#00000000" filter="url(#glow)"/>
    
    <rect id="23" width="250" height="250" rx="65" ry="65" transform="matrix(0.75 0 0 0.75  35 1285)"  fill="#00000000" filter="url(#glow)"/>
    <rect id="22" width="250" height="250" rx="65" ry="65" transform="matrix(0.75 0 0 0.75  285 1285)"  fill="#00000000" filter="url(#glow)"/>
    <rect id="21" width="250" height="250" rx="65" ry="65" transform="matrix(0.75 0 0 0.75  535 1285)"  fill="#00000000" filter="url(#glow)"/>
    <rect id="20" width="250" height="250" rx="65" ry="65" transform="matrix(0.75 0 0 0.75  785 1285)"  fill="#00000000" filter="url(#glow)"/>
    <rect id="19" width="250" height="250" rx="65" ry="65" transform="matrix(0.75 0 0 0.75  1035 1285)"  fill="#00000000" filter="url(#glow)"/>
    <rect id="18" width="250" height="250" rx="65" ry="65" transform="matrix(0.75 0 0 0.75  1285 1285)"  fill="#00000000" filter="url(#glow)"/>
    <rect id="17" width="250" height="250" rx="65" ry="65" transform="matrix(0.75 0 0 0.75  1535 1285)"  fill="#00000000" filter="url(#glow)"/>
    <rect id="16" width="250" height="250" rx="65" ry="65" transform="matrix(0.75 0 0 0.75  1785 1285)"  fill="#00000000" filter="url(#glow)"/>
    
    <rect id="8" width="250" height="250" rx="65" ry="65" transform="matrix(0.75 0 0 0.75  35 1535)"  fill="#00000000" filter="url(#glow)"/>
    <rect id="9" width="250" height="250" rx="65" ry="65" transform="matrix(0.75 0 0 0.75  285 1535)"  fill="#00000000" filter="url(#glow)"/>
    <rect id="10" width="250" height="250" rx="65" ry="65" transform="matrix(0.75 0 0 0.75  535 1535)"  fill="#00000000" filter="url(#glow)"/>
    <rect id="11" width="250" height="250" rx="65" ry="65" transform="matrix(0.75 0 0 0.75  785 1535)"  fill="#00000000" filter="url(#glow)"/>
    <rect id="12" width="250" height="250" rx="65" ry="65" transform="matrix(0.75 0 0 0.75  1035 1535)"  fill="#00000000" filter="url(#glow)"/>
    <rect id="13" width="250" height="250" rx="65" ry="65" transform="matrix(0.75 0 0 0.75  1285 1535)"  fill="#00000000" filter="url(#glow)"/>
    <rect id="14" width="250" height="250" rx="65" ry="65" transform="matrix(0.75 0 0 0.75  1535 1535)"  fill="#00000000" filter="url(#glow)"/>
    <rect id="15" width="250" height="250" rx="65" ry="65" transform="matrix(0.75 0 0 0.75  1785 1535)"  fill="#00000000" filter="url(#glow)"/>
    
    <rect id="7" width="250" height="250" rx="65" ry="65" transform="matrix(0.75 0 0 0.75  35 1785)"  fill="#00000000" filter="url(#glow)"/>
    <rect id="6" width="250" height="250" rx="65" ry="65" transform="matrix(0.75 0 0 0.75  285 1785)"  fill="#00000000" filter="url(#glow)"/>
    <rect id="5" width="250" height="250" rx="65" ry="65" transform="matrix(0.75 0 0 0.75  535 1785)"  fill="#00000000" filter="url(#glow)"/>
    <rect id="4" width="250" height="250" rx="65" ry="65" transform="matrix(0.75 0 0 0.75  785 1785)"  fill="#00000000" filter="url(#glow)"/>
    <rect id="3" width="250" height="250" rx="65" ry="65" transform="matrix(0.75 0 0 0.75  1035 1785)"  fill="#00000000" filter="url(#glow)"/>
    <rect id="2" width="250" height="250" rx="65" ry="65" transform="matrix(0.75 0 0 0.75  1285 1785)"  fill="#00000000" filter="url(#glow)"/>
    <rect id="1" width="250" height="250" rx="65" ry="65" transform="matrix(0.75 0 0 0.75  1535 1785)"  fill="#00000000" filter="url(#glow)"/>
    <rect id="0" width="250" height="250" rx="65" ry="65" transform="matrix(0.75 0 0 0.75  1785 1785)"  fill="#00000000" filter="url(#glow)"/></svg>